G04*
G04 #@! TF.GenerationSoftware,Altium Limited,CircuitStudio,1.5.2 (30)*
G04*
G04 Layer_Color=128*
%FSLAX44Y44*%
%MOMM*%
G71*
G01*
G75*
%ADD18C,0.1000*%
%ADD19O,2.3160X1.1580*%
%ADD23R,0.8000X0.9000*%
%ADD24R,0.7000X0.9000*%
%ADD25R,0.9000X0.7000*%
%ADD26R,1.7500X1.4500*%
%ADD27R,0.7500X0.3000*%
D18*
X562550Y946930D02*
G03*
X547550Y931930I-3J-14997D01*
G01*
X577550Y931930D02*
G03*
X562550Y946930I-14998J2D01*
G01*
X597550Y931930D02*
G03*
X612550Y946930I0J15000D01*
G01*
X612550Y1076930D02*
G03*
X597550Y1091930I-15000J0D01*
G01*
X562550Y1076930D02*
G03*
X577548Y1091928I0J14998D01*
G01*
X547550Y1091930D02*
G03*
X562548Y1076930I14998J-2D01*
G01*
X522550Y1091930D02*
X522550Y931930D01*
X547550Y931930D01*
X577550Y931930D02*
X597550Y931930D01*
X612550Y946930D02*
X612550Y1076930D01*
X577550Y1091930D02*
X597550Y1091930D01*
X522550Y1091930D02*
X547550Y1091930D01*
D19*
X542050Y1055130D02*
D03*
X580300D02*
D03*
X542050Y968730D02*
D03*
X580300D02*
D03*
D23*
X577050Y993180D02*
D03*
X563050D02*
D03*
X577050Y1030180D02*
D03*
X563050D02*
D03*
D24*
X604550Y1025430D02*
D03*
X589550D02*
D03*
X604550Y1011680D02*
D03*
X589550D02*
D03*
X604550Y997930D02*
D03*
X589550D02*
D03*
X535800Y987680D02*
D03*
X550800D02*
D03*
X550800Y1035680D02*
D03*
X535800D02*
D03*
D25*
X531300Y1019180D02*
D03*
Y1004180D02*
D03*
D26*
X560050Y1011680D02*
D03*
D27*
X574550Y1019180D02*
D03*
Y1014180D02*
D03*
Y1009180D02*
D03*
Y1004180D02*
D03*
X545550D02*
D03*
Y1009180D02*
D03*
Y1014180D02*
D03*
Y1019180D02*
D03*
M02*
