G04*
G04 #@! TF.GenerationSoftware,Altium Limited,CircuitStudio,1.5.2 (30)*
G04*
G04 Layer_Color=32896*
%FSLAX44Y44*%
%MOMM*%
G71*
G01*
G75*
%ADD18C,0.1000*%
%ADD29C,0.2000*%
%ADD46C,0.3000*%
G36*
X531079Y1071278D02*
X531344Y1071255D01*
X531598Y1071221D01*
X531834Y1071180D01*
X532053Y1071134D01*
X532255Y1071077D01*
X532445Y1071019D01*
X532613Y1070956D01*
X532763Y1070892D01*
X532895Y1070834D01*
X533005Y1070777D01*
X533103Y1070731D01*
X533172Y1070685D01*
X533230Y1070656D01*
X533259Y1070633D01*
X533270Y1070627D01*
X533385Y1070540D01*
X533495Y1070448D01*
X533599Y1070350D01*
X533697Y1070246D01*
X533783Y1070143D01*
X533864Y1070039D01*
X533939Y1069935D01*
X534002Y1069831D01*
X534066Y1069739D01*
X534112Y1069652D01*
X534158Y1069572D01*
X534193Y1069502D01*
X534221Y1069451D01*
X534239Y1069405D01*
X534250Y1069381D01*
X534256Y1069370D01*
X534314Y1069214D01*
X534366Y1069053D01*
X534412Y1068886D01*
X534452Y1068718D01*
X534487Y1068557D01*
X534515Y1068395D01*
X534533Y1068246D01*
X534556Y1068096D01*
X534567Y1067963D01*
X534579Y1067836D01*
X534585Y1067727D01*
X534590Y1067629D01*
X534596Y1067554D01*
Y1067490D01*
Y1067473D01*
Y1067456D01*
Y1067450D01*
Y1067444D01*
X534585Y1067115D01*
X534556Y1066816D01*
X534510Y1066527D01*
X534446Y1066262D01*
X534377Y1066020D01*
X534296Y1065801D01*
X534216Y1065599D01*
X534123Y1065420D01*
X534037Y1065259D01*
X533956Y1065120D01*
X533875Y1065005D01*
X533801Y1064913D01*
X533743Y1064838D01*
X533697Y1064780D01*
X533668Y1064752D01*
X533656Y1064740D01*
X533472Y1064578D01*
X533264Y1064434D01*
X533045Y1064313D01*
X532820Y1064210D01*
X532590Y1064123D01*
X532353Y1064048D01*
X532123Y1063985D01*
X531898Y1063939D01*
X531684Y1063898D01*
X531483Y1063869D01*
X531390Y1063858D01*
X531304Y1063852D01*
X531223Y1063846D01*
X531148Y1063835D01*
X531085D01*
X531021Y1063829D01*
X530970D01*
X530923Y1063823D01*
X530843D01*
X530531Y1063829D01*
X530381Y1063840D01*
X530237Y1063852D01*
X530105Y1063869D01*
X529972Y1063887D01*
X529851Y1063904D01*
X529741Y1063921D01*
X529638Y1063939D01*
X529545Y1063956D01*
X529465Y1063973D01*
X529401Y1063990D01*
X529343Y1064002D01*
X529309Y1064014D01*
X529280Y1064019D01*
X529274D01*
X529142Y1064054D01*
X529015Y1064094D01*
X528900Y1064140D01*
X528784Y1064186D01*
X528680Y1064227D01*
X528582Y1064273D01*
X528496Y1064319D01*
X528415Y1064359D01*
X528346Y1064400D01*
X528283Y1064440D01*
X528225Y1064475D01*
X528179Y1064504D01*
X528144Y1064527D01*
X528121Y1064544D01*
X528104Y1064556D01*
X528098Y1064561D01*
X527994Y1064642D01*
X527902Y1064734D01*
X527816Y1064827D01*
X527729Y1064924D01*
X527654Y1065028D01*
X527585Y1065126D01*
X527516Y1065224D01*
X527458Y1065317D01*
X527412Y1065409D01*
X527366Y1065490D01*
X527326Y1065564D01*
X527297Y1065634D01*
X527268Y1065686D01*
X527251Y1065726D01*
X527245Y1065749D01*
X527239Y1065760D01*
X527181Y1065910D01*
X527135Y1066060D01*
X527095Y1066210D01*
X527060Y1066366D01*
X527003Y1066660D01*
X526985Y1066798D01*
X526968Y1066937D01*
X526951Y1067058D01*
X526945Y1067173D01*
X526939Y1067271D01*
X526933Y1067358D01*
X526928Y1067427D01*
Y1067479D01*
Y1067513D01*
Y1067519D01*
Y1067525D01*
X526933Y1067825D01*
X526945Y1067969D01*
X526956Y1068107D01*
X526974Y1068240D01*
X526985Y1068361D01*
X527003Y1068476D01*
X527020Y1068586D01*
X527043Y1068678D01*
X527060Y1068764D01*
X527072Y1068839D01*
X527089Y1068903D01*
X527101Y1068955D01*
X527112Y1068995D01*
X527118Y1069018D01*
Y1069024D01*
X527152Y1069145D01*
X527193Y1069266D01*
X527239Y1069376D01*
X527279Y1069485D01*
X527326Y1069583D01*
X527372Y1069676D01*
X527418Y1069756D01*
X527458Y1069837D01*
X527504Y1069906D01*
X527539Y1069964D01*
X527573Y1070022D01*
X527608Y1070062D01*
X527631Y1070096D01*
X527648Y1070119D01*
X527660Y1070137D01*
X527666Y1070143D01*
X527752Y1070246D01*
X527844Y1070339D01*
X527942Y1070431D01*
X528046Y1070511D01*
X528150Y1070592D01*
X528254Y1070661D01*
X528358Y1070725D01*
X528456Y1070782D01*
X528548Y1070829D01*
X528634Y1070875D01*
X528709Y1070909D01*
X528778Y1070944D01*
X528836Y1070967D01*
X528876Y1070984D01*
X528900Y1070990D01*
X528911Y1070996D01*
X529067Y1071048D01*
X529222Y1071088D01*
X529384Y1071128D01*
X529545Y1071163D01*
X529862Y1071215D01*
X530012Y1071232D01*
X530157Y1071250D01*
X530289Y1071261D01*
X530410Y1071267D01*
X530520Y1071273D01*
X530612Y1071278D01*
X530693Y1071284D01*
X530797D01*
X531079Y1071278D01*
D02*
G37*
G36*
X534550Y1077044D02*
X531909D01*
Y1074461D01*
Y1074346D01*
X531903Y1074236D01*
Y1074144D01*
X531898Y1074057D01*
Y1073988D01*
X531892Y1073942D01*
Y1073908D01*
Y1073896D01*
X531880Y1073804D01*
X531869Y1073717D01*
X531857Y1073642D01*
X531840Y1073573D01*
X531829Y1073521D01*
X531823Y1073481D01*
X531811Y1073458D01*
Y1073446D01*
X531788Y1073377D01*
X531765Y1073308D01*
X531736Y1073244D01*
X531713Y1073193D01*
X531690Y1073152D01*
X531673Y1073118D01*
X531661Y1073095D01*
X531656Y1073089D01*
X531581Y1072968D01*
X531540Y1072910D01*
X531506Y1072858D01*
X531471Y1072812D01*
X531448Y1072777D01*
X531431Y1072754D01*
X531425Y1072749D01*
X531292Y1072610D01*
X531154Y1072484D01*
X531010Y1072380D01*
X530877Y1072293D01*
X530814Y1072253D01*
X530756Y1072224D01*
X530710Y1072195D01*
X530664Y1072172D01*
X530629Y1072155D01*
X530601Y1072143D01*
X530583Y1072132D01*
X530577D01*
X530376Y1072057D01*
X530180Y1071999D01*
X529989Y1071959D01*
X529897Y1071947D01*
X529816Y1071936D01*
X529736Y1071924D01*
X529666Y1071918D01*
X529603Y1071913D01*
X529551D01*
X529505Y1071907D01*
X529447D01*
X529257Y1071913D01*
X529072Y1071936D01*
X528900Y1071970D01*
X528738Y1072011D01*
X528582Y1072063D01*
X528433Y1072120D01*
X528300Y1072184D01*
X528179Y1072247D01*
X528069Y1072310D01*
X527971Y1072374D01*
X527885Y1072432D01*
X527816Y1072484D01*
X527758Y1072524D01*
X527718Y1072558D01*
X527689Y1072581D01*
X527683Y1072587D01*
X527608Y1072662D01*
X527545Y1072731D01*
X527481Y1072795D01*
X527435Y1072858D01*
X527395Y1072904D01*
X527366Y1072945D01*
X527349Y1072968D01*
X527343Y1072979D01*
X527291Y1073054D01*
X527251Y1073129D01*
X527210Y1073204D01*
X527181Y1073273D01*
X527158Y1073331D01*
X527141Y1073383D01*
X527130Y1073412D01*
X527124Y1073418D01*
Y1073423D01*
X527095Y1073521D01*
X527072Y1073625D01*
X527054Y1073729D01*
X527037Y1073821D01*
X527026Y1073902D01*
X527020Y1073971D01*
Y1073994D01*
X527014Y1074011D01*
Y1074023D01*
Y1074029D01*
X527003Y1074167D01*
X526997Y1074311D01*
X526991Y1074455D01*
Y1074588D01*
X526985Y1074646D01*
Y1074703D01*
Y1074755D01*
Y1074796D01*
Y1074836D01*
Y1074859D01*
Y1074876D01*
Y1074882D01*
Y1078653D01*
X534550D01*
Y1077044D01*
D02*
G37*
G36*
X531644Y1087924D02*
X531736Y1087918D01*
X531823D01*
X531898Y1087913D01*
X531973Y1087907D01*
X532042D01*
X532100Y1087901D01*
X532151D01*
X532192Y1087895D01*
X532226D01*
X532249Y1087890D01*
X532272D01*
X532428Y1087872D01*
X532572Y1087849D01*
X532688Y1087826D01*
X532791Y1087803D01*
X532872Y1087780D01*
X532930Y1087769D01*
X532947Y1087757D01*
X532964D01*
X532970Y1087751D01*
X532976D01*
X533172Y1087676D01*
X533351Y1087584D01*
X533432Y1087532D01*
X533506Y1087486D01*
X533576Y1087434D01*
X533645Y1087388D01*
X533703Y1087342D01*
X533749Y1087296D01*
X533795Y1087261D01*
X533829Y1087227D01*
X533858Y1087198D01*
X533881Y1087175D01*
X533893Y1087163D01*
X533899Y1087157D01*
X534025Y1086996D01*
X534135Y1086829D01*
X534227Y1086662D01*
X534302Y1086506D01*
X534331Y1086437D01*
X534360Y1086367D01*
X534383Y1086310D01*
X534400Y1086264D01*
X534412Y1086223D01*
X534423Y1086189D01*
X534429Y1086171D01*
Y1086166D01*
X534452Y1086056D01*
X534464Y1086010D01*
X534475Y1085970D01*
X534481Y1085935D01*
X534487Y1085912D01*
X534492Y1085895D01*
Y1085889D01*
X534510Y1085785D01*
X534515Y1085727D01*
X534521Y1085681D01*
X534527Y1085635D01*
X534533Y1085601D01*
Y1085578D01*
Y1085572D01*
X534538Y1085497D01*
Y1085422D01*
X534544Y1085347D01*
Y1085278D01*
X534550Y1085214D01*
Y1085168D01*
Y1085134D01*
Y1085122D01*
Y1085018D01*
Y1084909D01*
Y1084799D01*
Y1084695D01*
Y1084603D01*
Y1084563D01*
Y1084528D01*
Y1084505D01*
Y1084482D01*
Y1084471D01*
Y1084465D01*
Y1082752D01*
X533201D01*
Y1084292D01*
Y1084430D01*
Y1084557D01*
X533195Y1084667D01*
Y1084765D01*
Y1084845D01*
X533189Y1084903D01*
Y1084920D01*
Y1084938D01*
Y1084943D01*
Y1084949D01*
X533184Y1085047D01*
X533172Y1085134D01*
X533166Y1085209D01*
X533155Y1085278D01*
X533149Y1085330D01*
X533143Y1085370D01*
X533137Y1085393D01*
Y1085405D01*
X533126Y1085468D01*
X533109Y1085531D01*
X533091Y1085583D01*
X533074Y1085630D01*
X533063Y1085664D01*
X533051Y1085693D01*
X533039Y1085710D01*
Y1085716D01*
X532988Y1085803D01*
X532930Y1085877D01*
X532907Y1085912D01*
X532890Y1085935D01*
X532878Y1085947D01*
X532872Y1085952D01*
X532803Y1086027D01*
X532745Y1086079D01*
X532722Y1086096D01*
X532705Y1086114D01*
X532699Y1086120D01*
X532693Y1086125D01*
X532659Y1086148D01*
X532618Y1086166D01*
X532543Y1086200D01*
X532509Y1086212D01*
X532480Y1086223D01*
X532457Y1086229D01*
X532451D01*
X532382Y1086241D01*
X532313Y1086252D01*
X532238Y1086264D01*
X532169Y1086275D01*
X532105Y1086281D01*
X532053D01*
X532019Y1086287D01*
X532007D01*
X531892Y1086292D01*
X531771Y1086298D01*
X531638Y1086304D01*
X531511Y1086310D01*
X531402Y1086316D01*
X531310D01*
X531275Y1086321D01*
X526991D01*
Y1087930D01*
X531442D01*
X531644Y1087924D01*
D02*
G37*
G36*
X534550Y1080198D02*
X526991D01*
Y1081807D01*
X534550D01*
Y1080198D01*
D02*
G37*
%LPC*%
G36*
X530848Y1069514D02*
X530756D01*
X530531Y1069508D01*
X530324Y1069497D01*
X530133Y1069480D01*
X529961Y1069462D01*
X529799Y1069433D01*
X529649Y1069405D01*
X529516Y1069376D01*
X529401Y1069341D01*
X529297Y1069306D01*
X529211Y1069278D01*
X529136Y1069249D01*
X529072Y1069220D01*
X529026Y1069203D01*
X528998Y1069185D01*
X528974Y1069174D01*
X528969Y1069168D01*
X528842Y1069076D01*
X528727Y1068972D01*
X528634Y1068863D01*
X528554Y1068759D01*
X528490Y1068672D01*
X528467Y1068632D01*
X528444Y1068597D01*
X528433Y1068568D01*
X528421Y1068545D01*
X528410Y1068534D01*
Y1068528D01*
X528340Y1068367D01*
X528294Y1068199D01*
X528260Y1068038D01*
X528231Y1067888D01*
X528225Y1067825D01*
X528219Y1067761D01*
X528213Y1067704D01*
Y1067657D01*
X528208Y1067617D01*
Y1067588D01*
Y1067571D01*
Y1067565D01*
X528213Y1067381D01*
X528237Y1067208D01*
X528265Y1067046D01*
X528306Y1066896D01*
X528352Y1066764D01*
X528404Y1066637D01*
X528456Y1066527D01*
X528513Y1066429D01*
X528571Y1066343D01*
X528623Y1066268D01*
X528675Y1066205D01*
X528721Y1066158D01*
X528761Y1066118D01*
X528790Y1066089D01*
X528813Y1066072D01*
X528819Y1066066D01*
X528940Y1065985D01*
X529072Y1065910D01*
X529222Y1065847D01*
X529372Y1065795D01*
X529534Y1065749D01*
X529695Y1065709D01*
X529851Y1065680D01*
X530007Y1065651D01*
X530157Y1065634D01*
X530295Y1065616D01*
X530422Y1065605D01*
X530531Y1065599D01*
X530618D01*
X530658Y1065593D01*
X530745D01*
X530987Y1065599D01*
X531212Y1065611D01*
X531419Y1065634D01*
X531615Y1065668D01*
X531794Y1065703D01*
X531950Y1065743D01*
X532100Y1065784D01*
X532226Y1065824D01*
X532342Y1065870D01*
X532440Y1065910D01*
X532520Y1065951D01*
X532584Y1065985D01*
X532636Y1066014D01*
X532676Y1066037D01*
X532699Y1066055D01*
X532705Y1066060D01*
X532814Y1066153D01*
X532912Y1066256D01*
X532993Y1066372D01*
X533063Y1066487D01*
X533126Y1066614D01*
X533178Y1066735D01*
X533218Y1066862D01*
X533247Y1066977D01*
X533276Y1067092D01*
X533293Y1067202D01*
X533310Y1067294D01*
X533316Y1067381D01*
X533322Y1067450D01*
X533328Y1067502D01*
Y1067536D01*
Y1067542D01*
Y1067548D01*
X533322Y1067732D01*
X533299Y1067905D01*
X533270Y1068067D01*
X533230Y1068217D01*
X533184Y1068349D01*
X533132Y1068471D01*
X533074Y1068586D01*
X533016Y1068684D01*
X532959Y1068770D01*
X532907Y1068845D01*
X532855Y1068909D01*
X532809Y1068955D01*
X532768Y1068995D01*
X532740Y1069024D01*
X532716Y1069041D01*
X532711Y1069047D01*
X532590Y1069128D01*
X532451Y1069203D01*
X532301Y1069266D01*
X532146Y1069318D01*
X531984Y1069364D01*
X531823Y1069399D01*
X531661Y1069433D01*
X531500Y1069456D01*
X531350Y1069474D01*
X531212Y1069491D01*
X531085Y1069497D01*
X530975Y1069508D01*
X530883D01*
X530848Y1069514D01*
D02*
G37*
G36*
X530560Y1077044D02*
X528335D01*
Y1074824D01*
Y1074686D01*
X528346Y1074565D01*
X528358Y1074461D01*
X528369Y1074380D01*
X528381Y1074317D01*
X528392Y1074271D01*
X528398Y1074248D01*
X528404Y1074236D01*
X528444Y1074144D01*
X528496Y1074063D01*
X528559Y1073994D01*
X528617Y1073936D01*
X528675Y1073890D01*
X528721Y1073856D01*
X528750Y1073833D01*
X528755Y1073827D01*
X528761D01*
X528865Y1073775D01*
X528969Y1073740D01*
X529078Y1073712D01*
X529176Y1073694D01*
X529263Y1073683D01*
X529303D01*
X529332Y1073677D01*
X529395D01*
X529511Y1073683D01*
X529620Y1073689D01*
X529712Y1073706D01*
X529799Y1073717D01*
X529868Y1073735D01*
X529920Y1073752D01*
X529955Y1073758D01*
X529961Y1073764D01*
X529966D01*
X530053Y1073798D01*
X530133Y1073838D01*
X530197Y1073879D01*
X530249Y1073919D01*
X530295Y1073954D01*
X530324Y1073983D01*
X530341Y1074006D01*
X530347Y1074011D01*
X530393Y1074057D01*
X530428Y1074115D01*
X530456Y1074167D01*
X530479Y1074219D01*
X530497Y1074265D01*
X530508Y1074300D01*
X530520Y1074323D01*
Y1074334D01*
X530531Y1074415D01*
X530543Y1074501D01*
X530549Y1074588D01*
X530554Y1074669D01*
X530560Y1074744D01*
Y1074807D01*
Y1074824D01*
Y1074842D01*
Y1074853D01*
Y1074859D01*
Y1077044D01*
D02*
G37*
%LPD*%
D18*
X562550Y946930D02*
G03*
X547550Y931930I-3J-14997D01*
G01*
X577550Y931930D02*
G03*
X562550Y946930I-14998J2D01*
G01*
X597550Y931930D02*
G03*
X612550Y946930I0J15000D01*
G01*
X612550Y1076930D02*
G03*
X597550Y1091930I-15000J0D01*
G01*
X562550Y1076930D02*
G03*
X577548Y1091928I0J14998D01*
G01*
X547550Y1091930D02*
G03*
X562548Y1076930I14998J-2D01*
G01*
X522550Y1091930D02*
X522550Y931930D01*
X547550Y931930D01*
X577550Y931930D02*
X597550Y931930D01*
X612550Y946930D02*
X612550Y1076930D01*
X577550Y1091930D02*
X597550Y1091930D01*
X522550Y1091930D02*
X547550Y1091930D01*
D29*
X595050Y1028930D02*
X599050D01*
X595050Y1021930D02*
X599050D01*
X595050Y1015180D02*
X599050D01*
X595050Y1008180D02*
X599050D01*
X595050Y1001430D02*
X599050D01*
X595050Y994430D02*
X599050D01*
X541300Y984180D02*
X545300D01*
X541300Y991180D02*
X545300D01*
X541300Y1039180D02*
X545300D01*
X541300Y1032180D02*
X545300D01*
X527800Y1009680D02*
Y1013680D01*
X534800Y1009680D02*
Y1013680D01*
D46*
X601550Y1040430D02*
Y1050180D01*
X602050Y972930D02*
Y982930D01*
X597050Y977680D02*
X607050D01*
M02*
