M48
;Layer_Color=9474304
;FILE_FORMAT=2:5
INCH,LZ
;TYPE=PLATED
T1F00S00C0.01181
;TYPE=NON_PLATED
T3F00S00C0.02480
%
T01
X0207795Y036887
Y0373594
Y0378122
X0210748Y0376055
X0212913Y037389
X0215177Y037202
X0215079Y037635
X0218524Y0376941
X0217933Y0373988
X0221476Y0374776
X022502Y0373988
X0227776Y037576
X0231122Y0375957
X0231614Y0372709
X0227776Y0371626
X022935Y036887
X0234862Y0368772
X023811Y0369953
X0239291Y0373102
Y0376646
Y0379894
X0239095Y0382846
X0222165Y0383339
X0220886Y0386291
X022Y0379303
X0213602Y036887
X0207697Y0383929
X0207795Y0404598
X0207697Y0412768
Y0418378
X0210157Y0420642
X0211929Y0423299
X0207697
X0207795Y0427925
X0210551Y0426252
X0213602Y0427925
X0215177Y0425169
X0214685Y042074
X0217933Y0422807
X0218425Y0419067
X0223642Y0418968
X0221476Y042202
X022502Y0422807
X0227776Y0424776
X022935Y0427925
X0234862Y0428024
X023811Y0426941
X023939Y0423693
Y0420346
Y0416902
X0239094Y0410602
X0234469Y0410799
X0233583Y0406862
X0220591Y0410701
X0220984Y0415622
X0213898Y0407748
X0218425Y0399776
Y0396823
X0220492Y0398299
X0222461Y0399776
Y0396823
T03
X022561Y0410209
M30
