G04*
G04 #@! TF.GenerationSoftware,Altium Limited,CircuitStudio,1.5.2 (30)*
G04*
G04 Layer_Physical_Order=1*
G04 Layer_Color=255*
%FSLAX44Y44*%
%MOMM*%
G71*
G01*
G75*
%ADD10R,0.8000X0.8000*%
%ADD11R,1.0000X0.5200*%
%ADD12R,1.0000X0.2700*%
%ADD13R,2.0000X1.0000*%
%ADD14C,0.1500*%
%ADD15C,0.2540*%
%ADD16C,0.5000*%
%ADD17C,0.4000*%
%ADD18C,0.1000*%
%ADD19O,2.3160X1.1580*%
%ADD20O,2.4000X1.2000*%
%ADD21C,0.6000*%
%ADD22C,0.5000*%
G36*
X545796Y1088596D02*
X546768Y1085391D01*
X548346Y1082439D01*
X550470Y1079850D01*
X553059Y1077726D01*
X556012Y1076148D01*
X559216Y1075176D01*
X561310Y1074970D01*
X562548Y1074848D01*
X562548D01*
X562548D01*
X562550D01*
X562550D01*
X563787Y1074970D01*
X565882Y1075176D01*
X569086Y1076148D01*
X572039Y1077726D01*
X574627Y1079850D01*
X576752Y1082439D01*
X578330Y1085391D01*
X579302Y1088596D01*
X579429Y1089891D01*
X596280Y1089891D01*
X597550Y1089891D01*
X597550Y1089891D01*
D01*
X598764Y1089754D01*
X600910Y1089472D01*
X604042Y1088175D01*
X606731Y1086111D01*
X608795Y1083422D01*
X610092Y1080291D01*
X610374Y1078143D01*
X610375Y1078136D01*
X610511Y1076930D01*
D01*
Y1076930D01*
X610511D01*
X610511Y1075671D01*
Y1075665D01*
Y1047544D01*
X609391Y1046945D01*
X609056Y1047169D01*
X607300Y1047518D01*
X605544Y1047169D01*
X604056Y1046174D01*
X603061Y1044686D01*
X602712Y1042930D01*
X602935Y1041809D01*
X602178Y1041052D01*
X601681Y1040308D01*
X601506Y1039430D01*
Y1036930D01*
X598300D01*
Y1036333D01*
X597030Y1035947D01*
X596544Y1036674D01*
X595056Y1037669D01*
X594772Y1037725D01*
X594184Y1038314D01*
X592861Y1039198D01*
X592602Y1039249D01*
X591590Y1039451D01*
Y1041660D01*
X584050D01*
Y1044200D01*
X591590D01*
Y1048070D01*
X590951D01*
X590519Y1049340D01*
X591289Y1049931D01*
X592458Y1051454D01*
X593192Y1053227D01*
X593443Y1055130D01*
X593192Y1057033D01*
X592458Y1058807D01*
X591289Y1060329D01*
X589767Y1061498D01*
X587993Y1062232D01*
X586090Y1062483D01*
X574510D01*
X572607Y1062232D01*
X570834Y1061498D01*
X569311Y1060329D01*
X568142Y1058807D01*
X567408Y1057033D01*
X567157Y1055130D01*
X567408Y1053227D01*
X568142Y1051454D01*
X569311Y1049931D01*
X570834Y1048762D01*
X572607Y1048028D01*
X574510Y1047777D01*
X575760D01*
X575922Y1047131D01*
X574864Y1046310D01*
X573050Y1046671D01*
X571236Y1046310D01*
X569698Y1045283D01*
X568670Y1043744D01*
X568356Y1042165D01*
X567659Y1041786D01*
X567069Y1041656D01*
X564725Y1043999D01*
X564539Y1044936D01*
X563544Y1046424D01*
X562056Y1047419D01*
X560300Y1047768D01*
X558544Y1047419D01*
X557056Y1046424D01*
X556061Y1044936D01*
X555712Y1043180D01*
X556061Y1041424D01*
X557056Y1039936D01*
X558544Y1038941D01*
X560300Y1038592D01*
X562056Y1038941D01*
X562798Y1039437D01*
X568678Y1033558D01*
X569422Y1033061D01*
X569568Y1033032D01*
X570300Y1032886D01*
X570300Y1032886D01*
X572100D01*
X573506Y1031480D01*
Y1030680D01*
X573681Y1029802D01*
X574178Y1029058D01*
X575428Y1027808D01*
X576172Y1027311D01*
X576318Y1027282D01*
X577050Y1027136D01*
X577550Y1026059D01*
Y1021580D01*
Y1016580D01*
Y1011580D01*
Y1006580D01*
Y1002280D01*
Y1001724D01*
X577050D01*
X576172Y1001550D01*
X575428Y1001052D01*
X574178Y999802D01*
X573681Y999058D01*
X573506Y998180D01*
Y993380D01*
X572350Y992224D01*
X570300D01*
X569422Y992049D01*
X568678Y991552D01*
X562588Y985462D01*
X561050Y985768D01*
X559294Y985419D01*
X557806Y984424D01*
X556811Y982936D01*
X556462Y981180D01*
X556811Y979424D01*
X557806Y977936D01*
X559294Y976941D01*
X561050Y976592D01*
X562806Y976941D01*
X564294Y977936D01*
X565289Y979424D01*
X565638Y981180D01*
X565498Y981884D01*
X567003Y983389D01*
X567896Y983049D01*
X568207Y982797D01*
Y980930D01*
X568576Y979077D01*
X569626Y977505D01*
X571042Y976559D01*
X571132Y975881D01*
X571054Y975189D01*
X570834Y975098D01*
X569311Y973929D01*
X568142Y972406D01*
X567408Y970633D01*
X567157Y968730D01*
X567408Y966827D01*
X568142Y965054D01*
X569311Y963531D01*
X570834Y962362D01*
X572607Y961628D01*
X574510Y961377D01*
X586090D01*
X587993Y961628D01*
X589767Y962362D01*
X591289Y963531D01*
X592458Y965054D01*
X593192Y966827D01*
X593443Y968730D01*
X593192Y970633D01*
X592458Y972406D01*
X591289Y973929D01*
X590519Y974520D01*
X590951Y975790D01*
X591590D01*
Y979660D01*
X584050D01*
Y982200D01*
X591590D01*
Y984869D01*
X592916Y985133D01*
X593986Y985848D01*
X594550Y985722D01*
X595256Y985430D01*
Y974430D01*
X595431Y973552D01*
X595928Y972808D01*
X598756Y969980D01*
Y961130D01*
X594850Y957224D01*
X590929D01*
X590294Y958174D01*
X588806Y959169D01*
X587050Y959518D01*
X585294Y959169D01*
X583806Y958174D01*
X582811Y956686D01*
X582462Y954930D01*
X582811Y953174D01*
X583806Y951686D01*
X585294Y950691D01*
X587050Y950342D01*
X588806Y950691D01*
X590294Y951686D01*
X590929Y952636D01*
X595800D01*
X596678Y952811D01*
X597422Y953308D01*
X602672Y958558D01*
X603170Y959302D01*
X603344Y960180D01*
Y962113D01*
X604614Y962498D01*
X604916Y962046D01*
X605683Y961534D01*
Y960076D01*
X604916Y959564D01*
X604032Y958241D01*
X603722Y956680D01*
X604032Y955119D01*
X604916Y953796D01*
X606239Y952912D01*
X606665Y952828D01*
Y951533D01*
X606239Y951448D01*
X604916Y950564D01*
X604032Y949241D01*
X603722Y947680D01*
X604032Y946119D01*
X604809Y944957D01*
X604809Y944942D01*
X604598Y944186D01*
X604325Y943664D01*
X603239Y943448D01*
X601916Y942564D01*
X601032Y941241D01*
X600759Y939867D01*
X600181Y939595D01*
X599487Y939485D01*
X599434Y939564D01*
X598111Y940448D01*
X596550Y940758D01*
X594989Y940448D01*
X593666Y939564D01*
X592782Y938241D01*
X592472Y936680D01*
X592758Y935239D01*
X592703Y934904D01*
X592203Y933969D01*
X579432Y933969D01*
X579304Y935264D01*
X578332Y938468D01*
X576754Y941421D01*
X574630Y944009D01*
X572041Y946134D01*
X569089Y947712D01*
X565884Y948684D01*
X562552Y949012D01*
X562550Y949012D01*
X562547Y949012D01*
X559215Y948684D01*
X556011Y947712D01*
X553058Y946134D01*
X550470Y944010D01*
X548346Y941422D01*
X546768Y938469D01*
X545796Y935265D01*
X545668Y933969D01*
X525487Y933969D01*
X524589Y934867D01*
X524589Y1089891D01*
X545668Y1089891D01*
X545796Y1088596D01*
D02*
G37*
%LPC*%
G36*
X553550Y1004430D02*
X530550D01*
Y991430D01*
X553550D01*
Y1004430D01*
D02*
G37*
G36*
X548050Y976295D02*
X536050D01*
X534092Y976037D01*
X532268Y975281D01*
X530701Y974079D01*
X529499Y972512D01*
X528743Y970688D01*
X528485Y968730D01*
X528743Y966772D01*
X529499Y964948D01*
X530701Y963381D01*
X532268Y962179D01*
X534092Y961423D01*
X536050Y961165D01*
X548050D01*
X550008Y961423D01*
X551832Y962179D01*
X553399Y963381D01*
X554601Y964948D01*
X555357Y966772D01*
X555615Y968730D01*
X555357Y970688D01*
X554601Y972512D01*
X553399Y974079D01*
X551832Y975281D01*
X550008Y976037D01*
X548050Y976295D01*
D02*
G37*
G36*
Y1062695D02*
X536050D01*
X534092Y1062437D01*
X532268Y1061681D01*
X530701Y1060479D01*
X529499Y1058912D01*
X528743Y1057088D01*
X528485Y1055130D01*
X528743Y1053172D01*
X529499Y1051348D01*
X530701Y1049781D01*
X532268Y1048579D01*
X534092Y1047823D01*
X536050Y1047565D01*
X548050D01*
X550008Y1047823D01*
X551832Y1048579D01*
X553399Y1049781D01*
X554601Y1051348D01*
X555357Y1053172D01*
X555615Y1055130D01*
X555357Y1057088D01*
X554601Y1058912D01*
X553399Y1060479D01*
X551832Y1061681D01*
X550008Y1062437D01*
X548050Y1062695D01*
D02*
G37*
G36*
X553550Y1032430D02*
X530550D01*
Y1019430D01*
X553550D01*
Y1032430D01*
D02*
G37*
%LPD*%
D10*
X603800Y1031430D02*
D03*
Y1016430D02*
D03*
X603800Y987930D02*
D03*
Y1002930D02*
D03*
D11*
X584050Y1042930D02*
D03*
Y980930D02*
D03*
Y1035430D02*
D03*
Y988430D02*
D03*
D12*
Y1029430D02*
D03*
Y994430D02*
D03*
Y1024430D02*
D03*
Y1019430D02*
D03*
Y1014430D02*
D03*
Y1009430D02*
D03*
Y1004430D02*
D03*
Y999430D02*
D03*
D13*
X542050Y1025930D02*
D03*
Y997930D02*
D03*
D14*
X603800Y1039430D02*
X607300Y1042930D01*
X603800Y1031430D02*
Y1039430D01*
Y981930D02*
Y987930D01*
Y981930D02*
X607302Y978428D01*
Y972428D02*
Y978428D01*
X573050Y1035180D02*
X575800Y1032430D01*
X570300Y1035180D02*
X573050D01*
X562300Y1043180D02*
X570300Y1035180D01*
X575800Y1030680D02*
Y1032430D01*
Y992430D02*
Y998180D01*
X573300Y989930D02*
X575800Y992430D01*
X570300Y989930D02*
X573300D01*
X561550Y981180D02*
X570300Y989930D01*
X603800Y1031430D02*
X604050D01*
X575800Y998180D02*
X577050Y999430D01*
X584050D01*
X575800Y1030680D02*
X577050Y1029430D01*
X584050D01*
X560300Y1043180D02*
X562300D01*
X597550Y974430D02*
X601050Y970930D01*
X587050Y954930D02*
X595800D01*
X601050Y960180D02*
Y970930D01*
X595800Y954930D02*
X601050Y960180D01*
X561050Y981180D02*
X561550D01*
X597550Y974430D02*
Y996680D01*
X603800Y1002930D01*
D15*
X603800Y1002930D02*
Y1016430D01*
D16*
X584050Y1035430D02*
X591300D01*
X593300Y1033430D01*
D17*
X584050Y988430D02*
X591550D01*
X593300Y990180D01*
Y1033430D01*
D18*
X562550Y946930D02*
G03*
X547550Y931930I-3J-14997D01*
G01*
X577550Y931930D02*
G03*
X562550Y946930I-14998J2D01*
G01*
X597550Y931930D02*
G03*
X612550Y946930I0J15000D01*
G01*
X612550Y1076930D02*
G03*
X597550Y1091930I-15000J0D01*
G01*
X562550Y1076930D02*
G03*
X577548Y1091928I0J14998D01*
G01*
X547550Y1091930D02*
G03*
X562548Y1076930I14998J-2D01*
G01*
X522550Y1091930D02*
X522550Y931930D01*
X547550Y931930D01*
X577550Y931930D02*
X597550Y931930D01*
X612550Y946930D02*
X612550Y1076930D01*
X577550Y1091930D02*
X597550Y1091930D01*
X522550Y1091930D02*
X547550Y1091930D01*
D19*
X580300Y1055130D02*
D03*
Y968730D02*
D03*
D20*
X542050Y1055130D02*
D03*
Y968730D02*
D03*
D21*
X607300Y1042930D02*
D03*
X607302Y972428D02*
D03*
X595550Y1043430D02*
D03*
X560300Y1043180D02*
D03*
X587050Y954930D02*
D03*
X561050Y981180D02*
D03*
X593300Y1033430D02*
D03*
D22*
X560050Y1011680D02*
D03*
X565050Y1007930D02*
D03*
X554800D02*
D03*
Y1015430D02*
D03*
X565050D02*
D03*
X582550Y1086930D02*
D03*
X542550D02*
D03*
X562550Y1071930D02*
D03*
X546550Y1079930D02*
D03*
X553550Y1073930D02*
D03*
X571550D02*
D03*
X578550Y1078930D02*
D03*
X546550Y944930D02*
D03*
X553550Y949930D02*
D03*
X571550D02*
D03*
X582550Y936930D02*
D03*
X542550D02*
D03*
X578550Y943930D02*
D03*
X562550Y951930D02*
D03*
X527800Y936930D02*
D03*
Y948930D02*
D03*
Y960430D02*
D03*
X535300Y955180D02*
D03*
X527550Y975180D02*
D03*
X588300Y946680D02*
D03*
X558800Y963430D02*
D03*
X546300Y955930D02*
D03*
X527800Y1086930D02*
D03*
X527550Y1075180D02*
D03*
Y1062680D02*
D03*
Y1048430D02*
D03*
X538300Y1075180D02*
D03*
X561300Y1055680D02*
D03*
X554800Y1064430D02*
D03*
X568050Y1064180D02*
D03*
X596550Y1087180D02*
D03*
X604800Y1084430D02*
D03*
X608050Y1076180D02*
D03*
Y1067680D02*
D03*
Y1058930D02*
D03*
X564300Y973680D02*
D03*
X545300Y1068680D02*
D03*
X533800Y1068430D02*
D03*
X534800Y1082680D02*
D03*
X540800Y949680D02*
D03*
X578550Y954430D02*
D03*
X555050Y957430D02*
D03*
X596550Y936680D02*
D03*
X607800Y947680D02*
D03*
X604800Y939680D02*
D03*
X607800Y964930D02*
D03*
Y956680D02*
D03*
X527800Y1027680D02*
D03*
X543300Y1035680D02*
D03*
M02*
