G04*
G04 #@! TF.GenerationSoftware,Altium Limited,CircuitStudio,1.5.2 (30)*
G04*
G04 Layer_Color=16711935*
%FSLAX44Y44*%
%MOMM*%
G71*
G01*
G75*
%ADD18C,0.1000*%
G04:AMPARAMS|DCode=37|XSize=0.2032mm|YSize=0.2032mm|CornerRadius=0mm|HoleSize=0mm|Usage=FLASHONLY|Rotation=270.000|XOffset=0mm|YOffset=0mm|HoleType=Round|Shape=RoundedRectangle|*
%AMROUNDEDRECTD37*
21,1,0.2032,0.2032,0,0,270.0*
21,1,0.2032,0.2032,0,0,270.0*
1,1,0.0000,-0.1016,-0.1016*
1,1,0.0000,-0.1016,0.1016*
1,1,0.0000,0.1016,0.1016*
1,1,0.0000,0.1016,-0.1016*
%
%ADD37ROUNDEDRECTD37*%
%ADD38C,0.2032*%
%ADD39O,2.5192X1.3612*%
%ADD40O,2.6032X1.4032*%
%ADD41R,1.0032X1.1032*%
%ADD42R,0.9032X1.1032*%
%ADD43R,1.1032X0.9032*%
%ADD44R,1.9532X1.6532*%
%ADD45R,0.9532X0.5032*%
G36*
X610559Y947251D02*
X610673D01*
Y947251D01*
X610218Y943792D01*
X608882Y940568D01*
X606759Y937801D01*
X603991Y935677D01*
X600768Y934342D01*
X597309Y933886D01*
X597309D01*
X593809Y934001D01*
X593801Y960431D01*
X601062Y967692D01*
X610559Y967751D01*
Y947251D01*
D02*
G37*
G36*
X567524Y956496D02*
X572237Y955066D01*
X576580Y952745D01*
X580386Y949621D01*
X583511Y945814D01*
X585832Y941471D01*
X587261Y936758D01*
X587744Y931858D01*
X577768D01*
X577478Y934798D01*
X576621Y937626D01*
X575228Y940231D01*
X573354Y942515D01*
X571069Y944390D01*
X568464Y945783D01*
X565636Y946640D01*
X562696Y946930D01*
Y946858D01*
X562623Y946930D01*
X559683Y946640D01*
X556855Y945783D01*
X554249Y944390D01*
X551965Y942515D01*
X550091Y940231D01*
X548698Y937626D01*
X547840Y934798D01*
X547551Y931858D01*
X547623D01*
Y931858D01*
X537502D01*
Y931858D01*
X537985Y936758D01*
X539414Y941471D01*
X541736Y945814D01*
X544860Y949621D01*
X548667Y952745D01*
X553010Y955066D01*
X557722Y956496D01*
X562623Y956979D01*
Y956979D01*
X567524Y956496D01*
D02*
G37*
G36*
X587598Y1092002D02*
X587115Y1087102D01*
X585686Y1082389D01*
X583364Y1078046D01*
X580240Y1074239D01*
X576433Y1071115D01*
X572090Y1068794D01*
X567378Y1067364D01*
X562477Y1066881D01*
Y1066881D01*
X557576Y1067364D01*
X552864Y1068794D01*
X548520Y1071115D01*
X544714Y1074239D01*
X541590Y1078046D01*
X539268Y1082389D01*
X537839Y1087102D01*
X537356Y1092002D01*
X547332D01*
X547621Y1089062D01*
X548479Y1086235D01*
X549872Y1083629D01*
X551746Y1081345D01*
X554031Y1079470D01*
X556636Y1078077D01*
X559464Y1077220D01*
X562404Y1076930D01*
Y1077003D01*
X562477Y1076930D01*
X565418Y1077220D01*
X568245Y1078077D01*
X570851Y1079470D01*
X573135Y1081345D01*
X575009Y1083629D01*
X576402Y1086234D01*
X577260Y1089062D01*
X577549Y1092002D01*
X577477D01*
Y1092002D01*
X587598D01*
Y1092002D01*
D02*
G37*
G36*
X600768Y1089518D02*
X603991Y1088183D01*
X606759Y1086059D01*
X608882Y1083292D01*
X610218Y1080068D01*
X610673Y1076609D01*
Y1076609D01*
X610559D01*
Y1056109D01*
X601062Y1056168D01*
X593801Y1063429D01*
X593809Y1089859D01*
X597309Y1089974D01*
X597309D01*
X600768Y1089518D01*
D02*
G37*
D18*
X562550Y946930D02*
G03*
X547550Y931930I-3J-14997D01*
G01*
X577550Y931930D02*
G03*
X562550Y946930I-14998J2D01*
G01*
X597550Y931930D02*
G03*
X612550Y946930I0J15000D01*
G01*
X612550Y1076930D02*
G03*
X597550Y1091930I-15000J0D01*
G01*
X562550Y1076930D02*
G03*
X577548Y1091928I0J14998D01*
G01*
X547550Y1091930D02*
G03*
X562548Y1076930I14998J-2D01*
G01*
X522550Y1091930D02*
X522550Y931930D01*
X547550Y931930D01*
X577550Y931930D02*
X597550Y931930D01*
X612550Y946930D02*
X612550Y1076930D01*
X577550Y1091930D02*
X597550Y1091930D01*
X522550Y1091930D02*
X547550Y1091930D01*
D37*
X573050Y981930D02*
D03*
D38*
Y1041930D02*
D03*
D39*
X580300Y1055130D02*
D03*
Y968730D02*
D03*
D40*
X542050Y1055130D02*
D03*
Y968730D02*
D03*
D41*
X577050Y993180D02*
D03*
X563050D02*
D03*
X577050Y1030180D02*
D03*
X563050D02*
D03*
D42*
X604550Y1025430D02*
D03*
X589550D02*
D03*
X604550Y1011680D02*
D03*
X589550D02*
D03*
X604550Y997930D02*
D03*
X589550D02*
D03*
X535800Y987680D02*
D03*
X550800D02*
D03*
X550800Y1035680D02*
D03*
X535800D02*
D03*
D43*
X531300Y1019180D02*
D03*
Y1004180D02*
D03*
D44*
X560050Y1011680D02*
D03*
D45*
X574550Y1019180D02*
D03*
Y1014180D02*
D03*
Y1009180D02*
D03*
Y1004180D02*
D03*
X545550D02*
D03*
Y1009180D02*
D03*
Y1014180D02*
D03*
Y1019180D02*
D03*
M02*
